<svg xmlns="http://www.w3.org/2000/svg" xmlns:xlink="http://www.w3.org/1999/xlink" width="500" zoomAndPan="magnify" viewBox="0 0 375 374.999991" height="500" preserveAspectRatio="xMidYMid meet" version="1.0"><defs><g/><clipPath id="11621a7eb3"><path d="M 250.363281 144.648438 L 335.863281 144.648438 L 335.863281 230.148438 L 250.363281 230.148438 Z M 250.363281 144.648438 " clip-rule="nonzero"/></clipPath></defs><g clip-path="url(#11621a7eb3)"><path fill="#dc1055" d="M 328.917969 144.648438 L 257.503906 144.648438 C 253.578125 144.648438 250.363281 147.863281 250.363281 151.789062 L 250.363281 223.207031 C 250.363281 227.132812 253.578125 230.347656 257.503906 230.347656 L 328.921875 230.347656 C 332.847656 230.347656 336.0625 227.132812 336.0625 223.203125 L 336.0625 151.789062 C 336.0625 147.863281 332.847656 144.648438 328.917969 144.648438 Z M 268.214844 173.214844 C 268.214844 167.300781 273.015625 162.5 278.929688 162.5 C 284.84375 162.5 289.640625 167.300781 289.640625 173.214844 L 282.5 173.214844 C 282.5 171.242188 280.898438 169.644531 278.929688 169.644531 C 276.957031 169.644531 275.359375 171.242188 275.359375 173.214844 L 275.359375 187.492188 C 275.359375 189.464844 276.957031 191.0625 278.929688 191.0625 C 280.902344 191.0625 282.5 189.464844 282.5 187.492188 L 289.640625 187.492188 C 289.640625 193.410156 284.84375 198.207031 278.929688 198.207031 C 273.015625 198.207031 268.214844 193.410156 268.214844 187.492188 Z M 318.207031 212.492188 L 268.214844 212.492188 L 268.214844 205.351562 L 318.207031 205.351562 Z M 309.28125 198.210938 L 302.136719 198.210938 L 293.210938 162.5 L 300.574219 162.5 L 305.710938 183.046875 L 310.847656 162.5 L 318.207031 162.5 Z M 309.28125 198.210938 " fill-opacity="1" fill-rule="nonzero"/></g><g fill="#dc1055" fill-opacity="1"><g transform="translate(48.964035, 219.005519)"><g><path d="M 55.640625 -31.375 C 55.640625 -26.820312 54.804688 -22.640625 53.140625 -18.828125 C 51.421875 -14.953125 49.113281 -11.628906 46.21875 -8.859375 C 43.332031 -6.085938 39.921875 -3.9375 35.984375 -2.40625 C 32.046875 -0.800781 27.832031 0 23.34375 0 L 6.921875 0 L 6.921875 -62.734375 L 23.34375 -62.734375 C 27.832031 -62.734375 32.046875 -61.96875 35.984375 -60.4375 C 39.921875 -58.832031 43.332031 -56.648438 46.21875 -53.890625 C 49.113281 -51.117188 51.421875 -47.828125 53.140625 -44.015625 C 54.804688 -40.140625 55.640625 -35.925781 55.640625 -31.375 Z M 49.359375 -31.375 C 49.359375 -38.507812 46.835938 -44.472656 41.796875 -49.265625 C 36.878906 -53.941406 30.789062 -56.28125 23.53125 -56.28125 L 13.375 -56.28125 L 13.375 -6.453125 L 23.53125 -6.453125 C 30.789062 -6.453125 36.878906 -8.789062 41.796875 -13.46875 C 46.835938 -18.269531 49.359375 -24.238281 49.359375 -31.375 Z M 49.359375 -31.375 "/></g></g></g><g fill="#dc1055" fill-opacity="1"><g transform="translate(108.749951, 219.005519)"><g><path d="M 46.59375 -21.21875 L 46.59375 -17.8125 L 10.890625 -17.8125 C 11.503906 -14.300781 13.195312 -11.4375 15.96875 -9.21875 C 18.789062 -6.945312 21.925781 -5.8125 25.375 -5.8125 C 27.707031 -5.8125 29.953125 -6.363281 32.109375 -7.46875 C 34.203125 -8.519531 35.957031 -10 37.375 -11.90625 L 44.75 -11.90625 C 43.03125 -8.03125 40.445312 -4.984375 37 -2.765625 C 33.488281 -0.492188 29.953125 0.640625 26.390625 0.640625 C 22.753906 0.640625 19.675781 0.0859375 17.15625 -1.015625 C 14.570312 -2.117188 12.328125 -3.625 10.421875 -5.53125 C 6.242188 -9.59375 4.15625 -14.578125 4.15625 -20.484375 C 4.15625 -26.328125 6.242188 -31.335938 10.421875 -35.515625 C 14.546875 -39.640625 19.53125 -41.703125 25.375 -41.703125 C 31.03125 -41.703125 35.984375 -39.703125 40.234375 -35.703125 C 44.472656 -31.648438 46.59375 -26.820312 46.59375 -21.21875 Z M 39.765625 -23.34375 C 39.023438 -26.789062 37.300781 -29.648438 34.59375 -31.921875 C 31.894531 -34.140625 28.820312 -35.25 25.375 -35.25 C 20.082031 -35.25 15.929688 -32.878906 12.921875 -28.140625 C 11.992188 -26.660156 11.347656 -25.0625 10.984375 -23.34375 Z M 39.765625 -23.34375 "/></g></g></g><g fill="#dc1055" fill-opacity="1"><g transform="translate(159.032849, 219.005519)"><g><path d="M 39.21875 -20.296875 C 39.21875 -24.234375 37.863281 -27.675781 35.15625 -30.625 C 32.382812 -33.582031 28.96875 -35.0625 24.90625 -35.0625 C 20.851562 -35.0625 17.472656 -33.582031 14.765625 -30.625 C 11.992188 -27.675781 10.609375 -24.234375 10.609375 -20.296875 C 10.609375 -16.359375 11.992188 -12.914062 14.765625 -9.96875 C 17.472656 -7.007812 20.851562 -5.53125 24.90625 -5.53125 C 28.96875 -5.53125 32.382812 -7.007812 35.15625 -9.96875 C 37.863281 -12.914062 39.21875 -16.359375 39.21875 -20.296875 Z M 45.671875 0 L 39.21875 0 L 39.21875 -6.921875 C 38.84375 -6.429688 38.472656 -5.96875 38.109375 -5.53125 C 34.234375 -1.226562 29.492188 0.921875 23.890625 0.921875 C 18.296875 0.921875 13.59375 -1.226562 9.78125 -5.53125 C 6.03125 -9.71875 4.15625 -14.640625 4.15625 -20.296875 C 4.15625 -25.953125 6.03125 -30.875 9.78125 -35.0625 C 13.59375 -39.363281 18.296875 -41.515625 23.890625 -41.515625 C 29.492188 -41.515625 34.234375 -39.363281 38.109375 -35.0625 C 38.472656 -34.632812 38.84375 -34.171875 39.21875 -33.671875 L 39.21875 -40.59375 L 45.671875 -40.59375 Z M 45.671875 0 "/></g></g></g><g fill="#dc1055" fill-opacity="1"><g transform="translate(211.622307, 219.005519)"><g><path d="M 27.765625 -32.203125 C 26.296875 -33.554688 24.695312 -34.234375 22.96875 -34.234375 C 21.3125 -34.234375 19.898438 -33.769531 18.734375 -32.84375 C 17.503906 -31.863281 16.488281 -30.695312 15.6875 -29.34375 C 14.144531 -26.632812 13.375 -23.617188 13.375 -20.296875 L 13.375 0 L 6.921875 0 L 6.921875 -40.59375 L 13.375 -40.59375 L 13.375 -32.203125 L 13.65625 -33.859375 C 15.8125 -38.898438 19.164062 -41.421875 23.71875 -41.421875 C 25.125 -41.421875 26.472656 -41.144531 27.765625 -40.59375 Z M 27.765625 -32.203125 "/></g></g></g></svg>